<svg xmlns="http://www.w3.org/2000/svg" viewBox="0 0 1280 720" font-family="Arial" font-size="28" data-pptx-page-role="content">
<defs>
<marker id="arrow" markerWidth="10" markerHeight="10" refX="8" refY="5" orient="auto" markerUnits="userSpaceOnUse"><path d="M 1 1 L 8 5 L 1 9" fill="none" stroke="#10243A" stroke-width="2"/></marker>
<marker id="token-arrow" markerWidth="10" markerHeight="10" refX="8" refY="5" orient="auto" markerUnits="userSpaceOnUse"><path d="M 1 1 L 8 5 L 1 9" fill="none" stroke="#087F8C" stroke-width="2"/></marker>
</defs>
<rect id="background" data-pptx-role="background" width="1280" height="720" fill="#FFFFFF"/>
<g id="title" data-pptx-bounds="64 38 1152 109" fill="#10243A"><text x="64" y="62" font-size="16" fill="#5B6B7A">METHOD 1/3 · FOLLOWING ALGORITHM 1</text><text x="64" y="120" font-size="44" font-weight="bold">Two loops: token generation and RM updates</text></g>
<g id="nested-loops" data-pptx-bounds="62 160 1156 498">
<rect x="64" y="162" width="1152" height="494" fill="#FFFFFF" stroke="#CBD4DE" stroke-width="2"/>
<text x="86" y="193" font-size="22" font-weight="bold" fill="#10243A">RM UPDATE LOOP · t = 1, …, T</text>
<text x="795" y="193" font-size="22" fill="#5B6B7A">Start: θ₁, V₀ = λI, empty history</text>
<rect x="318" y="218" width="870" height="293" fill="#F3F6FA"/>
<text x="338" y="251" font-size="22" font-weight="bold" fill="#087F8C">TOKEN LOOP · p = 1, …, M</text>
<text x="836" y="251" font-size="22" fill="#5B6B7A">RM parameters θₜ stay fixed</text>
<line x1="270" y1="306" x2="335" y2="306" stroke="#10243A" stroke-width="2" marker-end="url(#arrow)"/>
<line x1="531" y1="328" x2="563" y2="328" stroke="#10243A" stroke-width="2" marker-end="url(#arrow)"/>
<line x1="818" y1="328" x2="853" y2="328" stroke="#10243A" stroke-width="2" marker-end="url(#arrow)"/>
<line x1="1011" y1="378" x2="1011" y2="396" stroke="#10243A" stroke-width="2" marker-end="url(#arrow)"/>
<line x1="858" y1="440" x2="840" y2="440" stroke="#10243A" stroke-width="2" marker-end="url(#arrow)"/>
<path d="M 545 440 L 435 440 L 435 383" fill="none" stroke="#087F8C" stroke-width="2" marker-end="url(#token-arrow)"/>
<text x="338" y="493" font-size="22" fill="#087F8C">p &lt; M: next token</text>
<path d="M 691 487 L 691 541 L 1040 541 L 1040 550" fill="none" stroke="#10243A" stroke-width="2" marker-end="url(#arrow)"/>
<text x="863" y="530" font-size="16" fill="#5B6B7A">p = M: complete answer pair</text>
<line x1="913" y1="593" x2="855" y2="593" stroke="#10243A" stroke-width="2" marker-end="url(#arrow)"/>
<line x1="555" y1="593" x2="504" y2="593" stroke="#10243A" stroke-width="2" marker-end="url(#arrow)"/>
<path d="M 300 593 L 178 593 L 178 358" fill="none" stroke="#10243A" stroke-width="2" marker-end="url(#arrow)"/>
<text x="91" y="457" font-size="22" fill="#10243A">Next<tspan x="91" dy="30">query</tspan></text>
<text x="199" y="487" font-size="22" fill="#5B6B7A">t + 1</text>
<rect x="88" y="252" width="182" height="102" fill="#10243A"/>
<text x="179" y="282" text-anchor="middle" font-size="22" font-weight="bold" fill="#FFFFFF">Receive qₜ</text>
<text x="179" y="312" text-anchor="middle" font-size="22" fill="#FFFFFF">Set both prefixes<tspan x="179" dy="28">to [qₜ]</tspan></text>
<rect x="339" y="276" width="192" height="102" fill="#FFFFFF"/>
<text x="435" y="304" text-anchor="middle" font-size="22" font-weight="bold" fill="#10243A">Frozen LLM</text>
<text x="435" y="333" text-anchor="middle" font-size="22" fill="#233447">top-40 per prefix<tspan x="435" dy="28">union: ≤80</tspan></text>
<rect x="568" y="276" width="250" height="102" fill="#FFFFFF"/>
<text x="693" y="304" text-anchor="middle" font-size="22" font-weight="bold" fill="#10243A">Score each candidate</text>
<text x="693" y="333" text-anchor="middle" font-size="22" fill="#233447">Shared RM: [yₜ,ⱼ, v]<tspan x="693" dy="28">π + ωr → scoreⱼ</tspan></text>
<rect x="858" y="276" width="306" height="102" fill="#E6F2F3"/>
<text x="1011" y="304" text-anchor="middle" font-size="22" font-weight="bold" fill="#10243A">Choose vₚ,₁, then vₚ,₂</text>
<text x="1011" y="333" text-anchor="middle" font-size="22" fill="#087F8C">1: max score₁</text>
<text x="1011" y="361" text-anchor="middle" font-size="22" fill="#C86620">2: max (score₂ + bonus)</text>
<rect x="858" y="401" width="306" height="85" fill="#FFFFFF"/>
<text x="1011" y="433" text-anchor="middle" font-size="22" font-weight="bold" fill="#10243A">Append both tokens</text>
<text x="1011" y="465" text-anchor="middle" font-size="22" fill="#233447">to their own prefixes</text>
<rect x="545" y="401" width="290" height="85" fill="#FFFFFF"/>
<text x="690" y="426" text-anchor="middle" font-size="22" font-weight="bold" fill="#10243A">Update V · line 14</text>
<g id="covariance-update" data-pptx-replace-with="formula" data-pptx-x="565" data-pptx-y="433" data-pptx-width="250" data-pptx-height="47" data-pptx-bounds="565 433 250 47"><metadata type="application/json"><![CDATA[{"latex":"V\\leftarrow V+\\delta\\delta^\\top","display":"block","font_size":24,"color":"#10243A","align":"center"}]]></metadata><text x="690" y="466" text-anchor="middle" font-family="Cambria Math" font-size="24" fill="#10243A">V ← V + δδᵀ</text></g>
<rect x="913" y="554" width="251" height="78" fill="#F3F6FA"/>
<text x="1038" y="585" text-anchor="middle" font-size="22" font-weight="bold" fill="#10243A">Get user choice ℓₜ</text>
<text x="1038" y="615" text-anchor="middle" font-size="22" fill="#233447">Save pair + label in Dₜ</text>
<rect x="555" y="554" width="295" height="78" fill="#10243A"/>
<text x="702" y="579" text-anchor="middle" font-size="22" font-weight="bold" fill="#FFFFFF">Train RM on history Dₜ</text>
<g id="rm-training" data-pptx-replace-with="formula" data-pptx-x="570" data-pptx-y="583" data-pptx-width="265" data-pptx-height="44" data-pptx-bounds="570 583 265 44"><metadata type="application/json"><![CDATA[{"latex":"\\theta_{t+1}=\\arg\\min_\\theta\\mathcal L_t(\\theta)","display":"block","font_size":22,"color":"#FFFFFF","align":"center"}]]></metadata><text x="702" y="614" text-anchor="middle" font-family="Cambria Math" font-size="22" fill="#FFFFFF">θₜ₊₁ = argminθ Lₜ(θ)</text></g>
<rect x="300" y="554" width="199" height="78" fill="#F3F6FA"/>
<text x="399" y="585" text-anchor="middle" font-size="22" font-weight="bold" fill="#10243A">Carry V forward</text>
<text x="399" y="615" text-anchor="middle" font-size="22" fill="#233447">Vₜ ← Vₜ₋₁</text>
</g>
<g id="footer" data-pptx-role="footer" data-pptx-bounds="64 666 1152 29" font-size="16" fill="#5B6B7A"><text x="64" y="686">Algorithm 1, lines 1–19 · δ is the selected gradient difference in line 14. V denotes the running matrix.</text><text x="1216" y="686" text-anchor="end">04 / 08</text></g>
</svg>
